# xmcd
# 
# Track frame offsets:
#     183
#     10498
#     21708
#     33120
#     43145
#     54425
#     63718
#     73660
#     85160
#     97655
#     110020
#     122008
#     134465
#     144880
#     162695
#     174650
# 
# Disc length: 2444
# 
# Revision: 7
# Processed by: cddbd v1.5.2PL0 Copyright (c) Steve Scherf et al.
# Submitted via: fre:ac v1.0.31
# 
DISCID=e4098a10
DTITLE=Connie Francis - The Best Of
DYEAR=1988
DGENRE=Oldies
TTITLE0=Lipstick On Your Collar
TTITLE1=My Happiness
TTITLE2=Frankie
TTITLE3=Fallin'
TTITLE4=I'm Sorry I Made You Cry
TTITLE5=Plenty Good Lovin
TTITLE6=Stupid Cupid
TTITLE7=Among My Souvenirs
TTITLE8=Teddy
TTITLE9=God Bless America
TTITLE10=If I Didn't Care
TTITLE11=You're Gonna Miss Me
TTITLE12=Who's Sorry Now
TTITLE13=Mama
TTITLE14=Everybody's Somebody's Fool
TTITLE15=Many Tears Ago
EXTD=YEAR: 1988
EXTT0=
EXTT1=
EXTT2=
EXTT3=
EXTT4=
EXTT5=
EXTT6=
EXTT7=
EXTT8=
EXTT9=
EXTT10=
EXTT11=
EXTT12=
EXTT13=
EXTT14=
EXTT15=
PLAYORDER=
